<?xml version="1.0" standalone="no"?>
<!DOCTYPE svg PUBLIC "-//W3C//DTD SVG 20010904//EN"
 "http://www.w3.org/TR/2001/REC-SVG-20010904/DTD/svg10.dtd">
<svg version="1.0" xmlns="http://www.w3.org/2000/svg"
 width="2200.000000pt" height="2200.000000pt" viewBox="0 0 2200.000000 2200.000000"
 preserveAspectRatio="xMidYMid meet">
<metadata>
Created by potrace 1.11, written by Peter Selinger 2001-2013
</metadata>
<g transform="translate(0.000000,2200.000000) scale(0.100000,-0.100000)"
fill="#000000" stroke="none">
<path d="M10787 20874 c-1 -1 -76 -4 -167 -8 -91 -3 -192 -8 -225 -11 -33 -2
-94 -7 -135 -10 -41 -3 -93 -8 -115 -10 -22 -3 -67 -7 -100 -10 -33 -3 -73 -7
-90 -10 -16 -2 -52 -7 -80 -10 -27 -3 -61 -7 -75 -10 -14 -2 -47 -7 -75 -10
-210 -24 -637 -107 -910 -176 -66 -17 -127 -33 -135 -35 -179 -44 -511 -149
-753 -238 -397 -146 -921 -389 -1215 -564 -29 -18 -57 -32 -62 -32 -6 0 -10
-4 -10 -10 0 -5 -5 -10 -12 -10 -6 0 -39 -17 -72 -38 -34 -21 -117 -74 -186
-118 -819 -517 -1547 -1223 -2051 -1989 -72 -110 -219 -351 -219 -360 0 -3
-11 -23 -25 -44 -25 -40 -165 -316 -205 -406 -170 -377 -329 -866 -390 -1205
-5 -25 -10 -54 -13 -65 -4 -18 -9 -46 -23 -137 -2 -16 -6 -41 -9 -57 -3 -16
-8 -49 -11 -72 -3 -24 -7 -55 -9 -69 -2 -14 -6 -59 -10 -100 -4 -41 -9 -88
-11 -105 -15 -123 -17 -727 -18 -4180 l-1 -3900 2625 0 2625 0 1 2695 c1 1482
4 2724 7 2760 3 36 9 101 12 145 3 44 8 91 10 105 2 14 7 50 10 80 5 47 35
241 51 335 24 139 88 396 140 560 42 133 124 356 135 369 5 6 9 16 9 24 0 23
163 349 235 472 191 321 406 577 660 788 85 70 281 194 388 246 101 49 255
107 318 120 13 3 35 8 49 11 313 73 670 42 965 -84 300 -128 556 -318 801
-596 242 -273 467 -652 613 -1030 23 -60 46 -117 50 -125 9 -18 81 -245 109
-345 62 -221 122 -526 147 -745 4 -30 8 -66 10 -80 2 -14 7 -65 10 -115 4 -49
9 -115 12 -145 3 -30 6 -1268 7 -2750 l1 -2695 2627 -2 2626 -1 -3 3936 c-2
2166 -6 3973 -9 4017 -16 233 -32 368 -67 575 -31 177 -79 393 -128 570 -23
85 -106 345 -120 375 -5 11 -32 81 -61 155 -103 265 -285 638 -400 820 -5 8
-22 38 -38 65 -42 71 -201 309 -279 418 -73 102 -249 326 -267 342 -7 6 -18
19 -26 31 -8 12 -42 52 -75 89 -964 1090 -2274 1883 -3800 2300 -71 19 -139
37 -150 40 -11 2 -76 17 -145 34 -123 29 -391 85 -460 95 -19 3 -45 8 -56 10
-12 2 -39 7 -60 10 -34 6 -117 19 -194 31 -14 2 -50 7 -80 10 -30 3 -66 8 -80
10 -178 25 -442 47 -730 61 -117 5 -608 12 -613 8z"/>
<path d="M7126 6214 c-305 -67 -482 -333 -540 -814 -14 -114 -15 -532 -2 -610
3 -19 9 -53 12 -75 13 -87 16 -103 40 -193 70 -263 198 -433 389 -515 121 -53
334 -59 467 -14 170 58 285 169 373 360 32 69 68 185 80 256 3 19 8 37 10 41
2 3 6 33 10 65 4 33 9 71 12 85 3 14 6 126 8 250 3 219 -7 370 -35 515 -19 98
-72 259 -100 305 -5 8 -20 35 -32 60 -13 25 -57 80 -99 122 -118 121 -250 174
-439 176 -47 0 -116 -6 -154 -14z m289 -244 c75 -36 161 -139 181 -215 1 -5 9
-26 18 -46 18 -44 52 -207 63 -309 16 -150 8 -594 -12 -699 -2 -10 -6 -36 -9
-57 -23 -142 -91 -298 -160 -366 -64 -62 -116 -82 -216 -82 -99 -1 -152 19
-217 83 -78 77 -148 256 -168 426 -4 33 -9 71 -12 85 -3 14 -7 135 -8 270 -3
281 11 431 56 598 47 176 146 300 264 333 49 13 173 2 220 -21z"/>
<path d="M7195 5271 c-79 -35 -122 -115 -112 -204 11 -90 75 -153 165 -164
168 -19 280 159 188 296 -56 83 -154 112 -241 72z"/>
<path d="M8910 6223 c-218 -38 -386 -185 -480 -418 -14 -33 -25 -64 -26 -70
-1 -5 -12 -44 -23 -85 -12 -41 -24 -97 -27 -125 -4 -27 -8 -53 -10 -56 -10
-18 -19 -190 -19 -374 0 -272 9 -359 56 -550 45 -183 116 -321 215 -417 127
-123 262 -171 464 -163 165 6 281 51 389 151 116 107 185 239 235 449 41 171
51 273 51 535 0 231 -6 301 -35 450 -70 366 -228 580 -480 656 -53 15 -254 27
-310 17z m253 -253 c142 -67 234 -268 264 -575 10 -100 10 -505 0 -602 -6 -59
-29 -194 -41 -238 -30 -111 -59 -175 -108 -240 -114 -150 -332 -166 -465 -36
-67 66 -134 218 -157 356 -29 174 -34 246 -30 505 1 135 5 256 7 270 3 14 8
48 11 75 36 274 139 452 289 501 57 19 173 11 230 -16z"/>
<path d="M8945 5273 c-71 -37 -115 -106 -114 -178 2 -176 206 -260 330 -136
68 67 76 171 20 249 -52 71 -165 103 -236 65z"/>
<path d="M10700 6227 c-3 -2 -25 -7 -50 -10 -189 -25 -350 -157 -449 -367 -39
-84 -84 -234 -96 -320 -4 -24 -8 -47 -10 -50 -11 -17 -20 -195 -20 -380 0
-249 7 -330 40 -499 14 -71 58 -205 90 -271 70 -143 163 -243 285 -306 87 -44
164 -59 305 -58 103 1 131 5 199 28 209 71 345 236 427 516 11 36 22 81 25
100 3 19 7 43 10 52 34 118 40 606 10 803 -24 160 -61 286 -119 405 -83 172
-209 283 -377 334 -52 16 -259 34 -270 23z m216 -257 c184 -90 271 -367 271
-870 0 -186 -2 -237 -22 -395 -9 -77 -42 -211 -65 -260 -11 -24 -20 -47 -20
-50 0 -13 -65 -101 -94 -127 -45 -41 -109 -68 -175 -74 -222 -24 -370 160
-417 516 -3 25 -8 56 -11 70 -8 45 -11 524 -3 595 22 195 51 315 100 413 56
111 115 169 203 198 58 19 177 10 233 -16z"/>
<path d="M10700 5274 c-81 -35 -121 -101 -116 -192 3 -70 28 -114 84 -153 29
-20 48 -24 103 -24 59 0 73 4 111 30 123 87 112 261 -21 332 -51 27 -110 29
-161 7z"/>
<path d="M12417 6224 c-1 -2 -17 -5 -35 -9 -18 -3 -58 -15 -90 -27 -220 -81
-363 -288 -431 -623 -28 -140 -35 -228 -35 -475 -1 -237 5 -319 35 -460 29
-141 30 -143 38 -165 39 -97 76 -181 83 -183 4 -2 8 -8 8 -14 0 -14 68 -106
105 -141 123 -119 266 -169 465 -163 238 8 405 111 523 326 69 125 126 331
144 520 15 165 8 571 -12 663 -2 12 -6 36 -9 52 -7 53 -36 168 -57 230 -66
188 -191 344 -330 410 -41 19 -84 37 -95 39 -10 3 -39 9 -63 14 -39 9 -236 14
-244 6z m249 -255 c138 -65 227 -260 261 -569 10 -95 10 -489 0 -595 -33 -350
-129 -541 -300 -599 -91 -31 -216 -11 -286 46 -42 34 -101 118 -126 180 -27
66 -62 197 -70 263 -3 28 -8 66 -11 85 -9 60 -12 501 -4 583 19 186 38 274 78
377 52 132 126 214 224 246 60 19 174 11 234 -17z"/>
<path d="M12456 5275 c-84 -30 -134 -114 -123 -207 11 -91 72 -152 165 -164
182 -24 294 191 167 322 -60 61 -129 78 -209 49z"/>
<path d="M17626 6213 c-265 -54 -440 -275 -515 -652 -30 -147 -36 -227 -36
-461 0 -311 20 -467 84 -655 83 -243 218 -391 416 -456 101 -33 298 -34 402
-1 292 91 445 349 502 842 9 77 7 507 -3 570 -3 19 -8 49 -11 65 -2 17 -7 48
-10 70 -25 175 -108 372 -205 488 -142 170 -375 241 -624 190z m285 -241 c117
-57 216 -229 244 -427 3 -22 8 -45 10 -52 19 -58 28 -559 12 -698 -14 -116
-15 -124 -32 -204 -44 -195 -121 -318 -234 -373 -66 -32 -197 -32 -261 -1
-124 61 -212 215 -246 428 -3 22 -7 42 -9 45 -11 17 -20 228 -19 435 0 235 16
409 46 505 51 165 77 217 143 282 31 31 89 66 126 76 57 16 171 8 220 -16z"/>
<path d="M17715 5283 c-37 -10 -97 -66 -116 -107 -25 -56 -20 -144 11 -189 41
-60 84 -82 161 -82 59 0 73 4 111 30 83 58 110 160 65 246 -33 62 -93 102
-159 105 -29 1 -62 0 -73 -3z"/>
<path d="M3660 6174 c-30 -8 -66 -16 -80 -19 -14 -2 -88 -19 -165 -36 -77 -17
-147 -32 -155 -33 -12 -2 -15 -27 -18 -140 l-3 -137 23 6 c56 13 155 34 178
39 14 2 86 18 160 35 74 17 136 31 137 31 2 0 3 -376 3 -835 l0 -835 -230 0
-230 0 0 -125 0 -125 600 0 600 0 0 125 0 125 -225 0 -225 0 0 970 0 970 -157
-1 c-97 -1 -179 -7 -213 -15z"/>
<path d="M5254 4890 c-116 -26 -223 -50 -237 -54 l-27 -6 0 -136 0 -136 28 7
c35 9 27 7 247 55 105 22 198 43 208 46 16 5 17 -39 17 -830 l0 -836 -230 0
-230 0 0 -125 0 -125 600 0 600 0 0 125 0 125 -225 0 -225 0 0 970 0 970 -157
-1 c-150 -1 -169 -4 -369 -49z"/>
<path d="M15845 4909 c-71 -16 -139 -31 -150 -33 -11 -2 -51 -12 -90 -20 -38
-9 -80 -19 -92 -21 -22 -5 -23 -9 -23 -141 0 -124 1 -135 18 -130 9 3 53 13
97 21 67 14 282 61 363 80 l22 5 0 -835 0 -835 -230 0 -230 0 0 -125 0 -125
600 0 600 0 0 125 0 125 -225 0 -225 0 0 970 0 970 -152 -1 c-130 -1 -173 -5
-283 -30z"/>
<path d="M14155 2969 c-22 -4 -49 -10 -60 -13 -89 -19 -191 -83 -270 -168 -83
-88 -137 -194 -195 -383 -14 -47 -38 -182 -47 -270 -15 -150 -7 -633 11 -664
2 -3 7 -28 10 -56 16 -120 74 -300 123 -377 13 -21 23 -41 23 -44 0 -13 106
-132 145 -162 180 -139 469 -161 686 -52 91 46 201 161 257 267 38 74 83 193
98 263 16 75 35 195 43 270 9 85 7 509 -3 565 -2 17 -8 53 -12 80 -4 28 -8 55
-10 60 -1 6 -5 28 -9 50 -3 22 -20 83 -36 135 -84 260 -228 420 -439 485 -62
19 -252 28 -315 14z m255 -247 c62 -28 122 -91 164 -171 32 -61 72 -183 82
-249 2 -15 6 -43 9 -62 21 -135 28 -563 12 -695 -42 -338 -116 -501 -263 -575
-60 -30 -172 -37 -236 -14 -214 75 -310 366 -303 924 4 269 6 298 36 445 61
294 186 432 384 422 43 -2 87 -12 115 -25z"/>
<path d="M14194 2022 c-22 -11 -56 -39 -75 -63 -32 -40 -34 -48 -34 -114 0
-59 4 -78 24 -107 34 -49 80 -78 138 -85 207 -24 306 239 133 353 -52 35 -131
41 -186 16z"/>
</g>
</svg>
